<svg width="42" height="40" viewBox="0 0 42 40" fill="none" xmlns="http://www.w3.org/2000/svg">
<path d="M31 5H11C6.58172 5 3 8.58172 3 13V29C3 33.4183 6.58172 37 11 37H31C35.4183 37 39 33.4183 39 29V13C39 8.58172 35.4183 5 31 5Z" stroke="#F8F8F8" stroke-width="5"/>
<path d="M3 15H39" stroke="#F8F8F8" stroke-width="5"/>
<path d="M13 3V7" stroke="#F8F8F8" stroke-width="5" stroke-linecap="round"/>
<path d="M29 3V7" stroke="#F8F8F8" stroke-width="5" stroke-linecap="round"/>
<path d="M30 27C31.6569 27 33 25.6569 33 24C33 22.3431 31.6569 21 30 21C28.3431 21 27 22.3431 27 24C27 25.6569 28.3431 27 30 27Z" fill="#F8F8F8"/>
</svg>
