<?xml version="1.0" encoding="UTF-8" standalone="no"?>
<!DOCTYPE svg PUBLIC "-//W3C//DTD SVG 1.1//EN" "http://www.w3.org/Graphics/SVG/1.1/DTD/svg11.dtd">
<svg width="100%" height="100%" viewBox="0 0 500 500" version="1.1" xmlns="http://www.w3.org/2000/svg" xmlns:xlink="http://www.w3.org/1999/xlink" xml:space="preserve" xmlns:serif="http://www.serif.com/" style="fill-rule:evenodd;clip-rule:evenodd;stroke-linecap:round;stroke-linejoin:round;stroke-miterlimit:1.5;">
    <g transform="matrix(1.05801,0,0,1.32496,-55.8606,-54.9584)">
        <path d="M478.705,154.463C478.705,112.683 436.226,78.763 383.904,78.763L194.275,78.763C141.954,78.763 99.475,112.683 99.475,154.463L99.475,305.863C99.475,347.644 141.954,381.564 194.275,381.564L383.904,381.564C436.226,381.564 478.705,347.644 478.705,305.863L478.705,154.463Z" style="fill:none;stroke:rgb(235,235,235);stroke-width:12.51px;"/>
    </g>
    <g transform="matrix(1,0,0,1,1.38334e-13,-3.5)">
        <path d="M49.385,151L450.615,151" style="fill:none;stroke:rgb(235,235,235);stroke-width:15px;"/>
    </g>
    <g transform="matrix(0.872,0,0,0.872,36.138,34.216)">
        <g transform="matrix(1,0,0,1,6.58716,8)">
            <path d="M136,214C136,207.377 130.623,202 124,202L100,202C93.377,202 88,207.377 88,214L88,238C88,244.623 93.377,250 100,250L124,250C130.623,250 136,244.623 136,238L136,214Z" style="fill:rgb(235,235,235);stroke:rgb(235,235,235);stroke-width:17.2px;"/>
        </g>
        <g transform="matrix(1,0,0,1,133.103,8)">
            <path d="M136,214C136,207.377 130.623,202 124,202L100,202C93.377,202 88,207.377 88,214L88,238C88,244.623 93.377,250 100,250L124,250C130.623,250 136,244.623 136,238L136,214Z" style="fill:rgb(235,235,235);stroke:rgb(235,235,235);stroke-width:17.2px;"/>
        </g>
        <g transform="matrix(1,0,0,1,259.922,8)">
            <path d="M136,214C136,207.377 130.623,202 124,202L100,202C93.377,202 88,207.377 88,214L88,238C88,244.623 93.377,250 100,250L124,250C130.623,250 136,244.623 136,238L136,214Z" style="fill:rgb(235,235,235);stroke:rgb(235,235,235);stroke-width:17.2px;"/>
        </g>
    </g>
    <g transform="matrix(0.872,0,0,0.872,36.138,144.216)">
        <g transform="matrix(1,0,0,1,6.58716,8)">
            <path d="M136,214C136,207.377 130.623,202 124,202L100,202C93.377,202 88,207.377 88,214L88,238C88,244.623 93.377,250 100,250L124,250C130.623,250 136,244.623 136,238L136,214Z" style="fill:rgb(235,235,235);stroke:rgb(235,235,235);stroke-width:17.2px;"/>
        </g>
        <g transform="matrix(1,0,0,1,133.103,8)">
            <path d="M136,214C136,207.377 130.623,202 124,202L100,202C93.377,202 88,207.377 88,214L88,238C88,244.623 93.377,250 100,250L124,250C130.623,250 136,244.623 136,238L136,214Z" style="fill:rgb(235,235,235);stroke:rgb(235,235,235);stroke-width:17.2px;"/>
        </g>
        <g transform="matrix(1,0,0,1,259.922,8)">
            <path d="M136,214C136,207.377 130.623,202 124,202L100,202C93.377,202 88,207.377 88,214L88,238C88,244.623 93.377,250 100,250L124,250C130.623,250 136,244.623 136,238L136,214Z" style="fill:rgb(235,235,235);stroke:rgb(235,235,235);stroke-width:17.2px;"/>
        </g>
    </g>
    <g transform="matrix(1,0,0,1.23715,0,-23.7154)">
        <path d="M139.546,100L139.546,49.4" style="fill:none;stroke:rgb(235,235,235);stroke-width:13.34px;"/>
    </g>
    <g transform="matrix(1,0,0,1.23715,110.454,-23.7154)">
        <path d="M139.546,100L139.546,49.4" style="fill:none;stroke:rgb(235,235,235);stroke-width:13.34px;"/>
    </g>
    <g transform="matrix(1,0,0,1.23715,220.454,-23.7154)">
        <path d="M139.546,100L139.546,49.4" style="fill:none;stroke:rgb(235,235,235);stroke-width:13.34px;"/>
    </g>
</svg>
